<?xml version="1.0" encoding="UTF-8" standalone="no"?>
<svg
   version="1.0"
   width="1200.000000pt"
   height="900.000000pt"
   viewBox="0 0 1200.000000 900.000000"
   preserveAspectRatio="xMidYMid meet"
   id="svg14"
   sodipodi:docname="HerbIO_Logo2.svg"
   inkscape:version="1.1.2 (0a00cf5339, 2022-02-04)"
   xmlns:inkscape="http://www.inkscape.org/namespaces/inkscape"
   xmlns:sodipodi="http://sodipodi.sourceforge.net/DTD/sodipodi-0.dtd"
   xmlns="http://www.w3.org/2000/svg"
   xmlns:svg="http://www.w3.org/2000/svg">
  <defs
     id="defs18" />
  <sodipodi:namedview
     id="namedview16"
     pagecolor="#ffffff"
     bordercolor="#666666"
     borderopacity="1.0"
     inkscape:pageshadow="2"
     inkscape:pageopacity="0.0"
     inkscape:pagecheckerboard="0"
     inkscape:document-units="pt"
     showgrid="false"
     inkscape:zoom="0.60583333"
     inkscape:cx="800.55021"
     inkscape:cy="600"
     inkscape:window-width="1920"
     inkscape:window-height="1020"
     inkscape:window-x="0"
     inkscape:window-y="32"
     inkscape:window-maximized="1"
     inkscape:current-layer="svg14" />
  <metadata
     id="metadata2">
Created by potrace 1.16, written by Peter Selinger 2001-2019
</metadata>
  <g
     transform="translate(0.000000,900.000000) scale(0.100000,-0.100000)"
     fill="#000000"
     stroke="none"
     id="g12"
     style="fill:none">
    <path
       d="M0 4500 l0 -4500 6000 0 6000 0 0 4500 0 4500 -6000 0 -6000 0 0 -4500z m6549 2767 c20 -80 31 -223 25 -328 -19 -359 -214 -638 -560 -801 l-113 -53 6 -50 c2 -27 9 -74 14 -104 5 -30 9 -74 9 -97 0 -24 4 -45 9 -48 5 -3 14 -36 21 -73 7 -38 15 -73 19 -80 3 -6 26 26 50 72 61 117 189 285 253 334 160 120 340 146 562 80 39 -12 74 -23 78 -26 14 -8 -75 -128 -148 -198 -78 -76 -149 -123 -246 -163 -51 -21 -84 -27 -170 -30 l-106 -4 -30 -42 c-49 -69 -83 -145 -108 -244 -23 -91 -24 -108 -24 -438 0 -189 1 -344 3 -344 1 -1 128 -5 282 -10 154 -5 291 -12 305 -14 27 -5 122 -13 260 -22 218 -14 461 -73 609 -148 122 -62 224 -259 280 -545 94 -469 16 -969 -205 -1323 -207 -331 -570 -577 -1004 -679 -215 -51 -472 -80 -660 -73 -201 6 -379 15 -402 20 -13 2 -52 9 -88 14 -155 24 -303 66 -430 120 -36 15 -85 36 -110 46 -25 10 -90 49 -145 86 -343 229 -546 566 -631 1043 -27 152 -25 518 4 677 29 161 66 287 112 386 58 124 100 175 170 211 74 37 282 85 460 106 74 9 160 21 190 26 30 5 78 11 105 14 28 3 75 8 105 11 81 10 103 11 238 19 67 4 122 10 122 14 0 3 56 7 125 9 l125 2 0 -285 0 -285 -39 0 c-58 0 -185 -26 -236 -49 -66 -29 -138 -102 -169 -170 -29 -66 -46 -187 -46 -343 l0 -98 -45 0 -45 0 0 -175 0 -175 180 0 180 0 0 175 0 175 -45 0 -45 0 0 163 c0 137 3 168 19 203 35 76 109 114 222 114 l69 0 0 -475 0 -475 -76 0 c-42 0 -74 -4 -72 -9 7 -21 233 -410 238 -410 5 -1 231 389 238 410 2 5 -29 9 -72 9 l-76 0 0 631 0 631 103 -4 c121 -4 166 -22 205 -81 26 -39 27 -46 30 -205 l3 -164 -41 -35 c-104 -89 -113 -230 -20 -323 138 -138 370 -38 370 161 0 52 -46 136 -90 165 l-38 25 -5 162 c-3 110 -10 178 -21 214 -51 160 -189 252 -393 261 l-103 4 0 134 0 134 -90 0 -90 0 0 111 c0 145 -17 330 -41 450 -65 328 -194 496 -394 512 -220 18 -452 168 -538 349 -44 90 -70 185 -54 195 6 3 56 8 111 11 117 5 193 -11 296 -61 90 -44 185 -141 230 -234 29 -61 40 -73 65 -79 17 -3 58 -21 93 -39 l63 -33 -8 76 c-4 43 -8 163 -8 267 1 207 10 269 67 445 85 265 260 485 483 607 50 27 230 100 251 102 7 1 17 -18 23 -42z"
       id="path4"
       style="fill:none" />
    <path
       d="M6328 7022 c-176 -114 -293 -273 -362 -488 -33 -103 -57 -234 -43 -234 20 0 137 71 199 121 134 107 221 255 258 436 20 101 27 203 13 202 -5 0 -34 -17 -65 -37z"
       id="path6"
       style="fill:none" />
    <path
       d="M5060 6113 c0 -12 31 -55 67 -96 61 -69 154 -125 265 -157 25 -8 26 -7 17 17 -24 63 -101 151 -169 190 -59 35 -180 65 -180 46z"
       id="path8"
       style="fill:none" />
    <path
       d="M6530 6006 c-73 -16 -133 -48 -191 -103 -77 -72 -65 -84 57 -62 77 14 186 67 248 120 42 37 46 44 30 50 -28 11 -81 9 -144 -5z"
       id="path10"
       style="fill:none" />
  </g>
  <path
     style="fill:#000000;stroke-width:1.65062"
     d="m 760.11004,955.61082 c -63.47398,-3.64966 -115.44815,-24.99007 -151.06935,-62.02853 -21.4649,-22.31891 -34.14912,-43.57026 -44.48349,-74.52841 -9.15246,-27.41756 -11.59984,-44.46146 -11.59984,-80.78296 0,-35.764 2.22927,-54.06778 9.40216,-77.19802 10.35246,-33.38329 21.29351,-47.57732 41.18787,-53.43381 29.42612,-8.66243 83.32354,-15.84712 171.00557,-22.79554 l 12.79229,-1.01373 v 37.22869 37.22868 l -8.66575,1.11863 c -24.01237,3.09965 -36.42257,9.02279 -45.89664,21.90553 -6.46987,8.79765 -9.31643,20.90395 -10.72383,45.60802 l -1.1856,20.81103 h -5.55364 -5.55363 v 23.93397 23.93398 h 24.75929 24.75928 V 771.66437 747.7304 h -5.90192 -5.90194 l 0.53743,-22.99427 c 0.47092,-20.14954 0.95843,-23.55737 3.94064,-27.54588 6.31413,-8.44478 11.24517,-10.89966 23.68103,-11.78944 l 11.70528,-0.83751 v 62.94531 62.94531 h -9.90371 c -5.44704,0 -9.90371,0.57542 -9.90371,1.27872 0,1.86257 27.95392,50.28399 30.65112,53.09346 1.25546,1.30772 2.6726,1.98773 3.14918,1.51114 2.33006,-2.33004 30.55205,-52.02904 30.56218,-53.82005 0.008,-1.42266 -3.06328,-2.06327 -9.89206,-2.06327 h -9.90371 v -83.56325 -83.56325 l 13.61761,0.74203 c 25.66625,1.39857 29.58325,6.12381 30.62868,36.94871 l 0.73347,21.62662 -5.01671,3.57221 c -2.75919,1.96472 -6.56603,6.77266 -8.45962,10.68431 -10.00019,20.65764 3.62567,42.38343 26.5818,42.38343 10.46752,0 17.90595,-4.04193 23.9536,-13.01604 8.18567,-12.14672 6.34592,-26.1213 -4.90882,-37.28704 l -6.69623,-6.64327 -1.1986,-23.28766 c -0.90528,-17.58864 -1.99238,-25.08213 -4.44218,-30.62031 -8.05485,-18.20932 -22.39083,-27.05274 -48.56359,-29.95739 l -16.22941,-1.80114 -0.001,-16.58904 -10e-4,-16.58903 33.42619,1.18397 c 40.78908,1.44477 91.30267,5.56521 109.25307,8.91188 31.74307,5.91818 53.2871,14.70937 62.5909,25.54062 19.6099,22.8293 32.5924,77.18634 30.2763,126.76515 -2.7966,59.86507 -22.3186,107.57408 -58.86502,143.85764 -30.50873,30.28927 -70.34622,50.30291 -119.7214,60.1459 -36.06508,7.1896 -60.74726,8.48357 -108.95224,5.71185 z"
     id="path264"
     transform="scale(0.75)" />
  <path
     style="fill:#000000;stroke-width:1.65062"
     d="m 788.45913,558.32187 c -2.28927,-53.08268 -11.00931,-85.46907 -27.9655,-103.86437 -8.99762,-9.76127 -16.37218,-13.30942 -33.82101,-16.27243 -29.42934,-4.99747 -55.80028,-22.90044 -67.15023,-45.58766 -6.95284,-13.89789 -8.95567,-22.59162 -5.68223,-24.66485 1.25449,-0.79453 7.97124,-1.45597 14.92612,-1.46987 28.87391,-0.0577 54.07186,14.89711 66.53222,39.48647 3.14814,6.21253 5.74438,9.0737 9.38525,10.34291 2.76827,0.96503 8.33943,3.51253 12.38037,5.66111 4.04093,2.14859 7.49354,3.90662 7.67247,3.90675 0.17892,1.1e-4 0.34546,-18.01227 0.37008,-40.02752 0.0435,-38.93439 0.16907,-40.43351 4.59529,-54.8833 11.39711,-37.2069 29.58578,-64.57184 54.98543,-82.72584 9.98238,-7.13475 19.65623,-12.07813 36.48574,-18.64439 8.31612,-3.24463 8.68701,-3.25705 10.24652,-0.3431 0.88993,1.66287 2.43808,11.22575 3.4403,21.25085 5.95666,59.58327 -21.15037,106.08396 -76.83931,131.81383 -10.98094,5.07351 -12.51367,6.30071 -11.77493,9.42777 0.4671,1.97726 1.3261,8.79447 1.90888,15.14935 1.34071,14.61973 7.39378,42.09078 9.27444,42.09078 0.78304,0 3.40101,-3.15681 5.8177,-7.01513 21.0452,-33.59935 32.26203,-46.36534 47.17592,-53.69134 19.01824,-9.34214 37.72777,-10.20647 62.78123,-2.9003 l 9.48999,2.7675 -5.20087,7.55919 c -9.51214,13.82542 -25.99942,28.25723 -40.51179,35.46119 -12.21308,6.06257 -15.0433,6.79444 -29.12258,7.53088 l -15.59485,0.81572 -5.99531,10.10065 c -3.29741,5.55537 -7.93657,16.04289 -10.30924,23.30562 -4.23036,12.94915 -4.31747,14.14017 -4.49696,61.48442 l -0.18304,48.27946 -10.88506,0.001 -10.88506,10e-4 z M 868.6581,416.38209 c 12.67479,-5.93123 22.67615,-13.04274 22.67615,-16.12396 0,-5.34107 -20.99698,-3.6369 -33.44705,2.71465 -8.13576,4.15056 -19.37276,14.3014 -19.37276,17.5002 0,4.27404 17.27952,1.92897 30.14366,-4.09089 z m -145.68699,1.54767 c 0,-3.18208 -9.98147,-16.63867 -16.44656,-22.17253 -9.23532,-7.9051 -33.07201,-16.12934 -33.07201,-11.41066 0,2.52188 9.19583,14.15394 15.69515,19.85323 10.63515,9.32601 33.82342,18.73885 33.82342,13.72996 z m 83.24346,-65.95207 c 6.29284,-4.02582 15.23043,-11.2005 19.8613,-15.94374 15.65264,-16.0324 27.29414,-45.08474 27.29414,-68.11479 v -10.50737 l -5.36451,2.7437 c -9.24421,4.728 -25.24707,18.34581 -32.2216,27.41928 -13.11275,17.059 -26.78803,51.48768 -26.78803,67.44116 0,7.66736 0.66912,7.5493 17.2187,-3.03824 z"
     id="path303"
     transform="scale(0.75)" />
</svg>
